<?xml version="1.0" standalone="no"?>
<!DOCTYPE svg PUBLIC "-//W3C//DTD SVG 20010904//EN"
 "http://www.w3.org/TR/2001/REC-SVG-20010904/DTD/svg10.dtd">
<svg version="1.0" xmlns="http://www.w3.org/2000/svg"
 width="900.000000pt" height="640.000000pt" viewBox="0 0 900.000000 640.000000"
 preserveAspectRatio="xMidYMid meet">

<g transform="translate(0.000000,640.000000) scale(0.100000,-0.100000)"
fill="#1100E6" stroke="none">
<path d="M4250 5570 c0 -5 7 -10 16 -10 8 0 12 5 9 10 -3 6 -10 10 -16 10 -5
0 -9 -4 -9 -10z"/>
<path d="M4725 5560 c3 -5 10 -10 16 -10 5 0 9 5 9 10 0 6 -7 10 -16 10 -8 0
-12 -4 -9 -10z"/>
<path d="M4800 5560 c0 -5 5 -10 11 -10 5 0 7 5 4 10 -3 6 -8 10 -11 10 -2 0
-4 -4 -4 -10z"/>
<path d="M4435 5540 c3 -5 10 -10 16 -10 5 0 9 5 9 10 0 6 -7 10 -16 10 -8 0
-12 -4 -9 -10z"/>
<path d="M4840 5544 c1 -10 90 -54 108 -54 6 0 14 -5 18 -11 5 -9 -1 -10 -22
-5 -24 6 -27 5 -16 -6 18 -18 135 -19 120 -1 -6 7 -18 13 -27 13 -9 0 -35 9
-56 21 -22 11 -51 24 -65 29 -14 4 -33 11 -42 15 -10 4 -18 3 -18 -1z"/>
<path d="M4499 5529 c-6 -3 7 -8 30 -11 22 -2 41 -1 41 3 0 10 -58 17 -71 8z"/>
<path d="M4347 5513 c-4 -6 0 -16 8 -23 21 -17 28 -8 11 15 -8 11 -15 14 -19
8z"/>
<path d="M4845 5499 c-10 -15 2 -23 36 -25 l29 -2 -24 19 c-28 22 -32 23 -41
8z"/>
<path d="M3700 5490 c-8 -5 -10 -10 -5 -10 6 0 17 5 25 10 8 5 11 10 5 10 -5
0 -17 -5 -25 -10z"/>
<path d="M3810 5490 c-12 -8 -11 -10 8 -10 12 0 22 5 22 10 0 13 -11 13 -30 0z"/>
<path d="M3965 5490 c-11 -5 -31 -9 -45 -10 -14 0 -43 -9 -65 -20 -22 -11 -46
-19 -52 -20 -12 0 -19 -20 -7 -20 17 0 195 63 199 71 7 11 -3 11 -30 -1z"/>
<path d="M4113 5475 c-116 -15 -255 -54 -250 -69 2 -6 21 -13 42 -16 l38 -5
-29 -14 c-16 -7 -36 -17 -44 -21 -9 -4 -31 -11 -50 -15 -19 -4 -60 -20 -91
-36 -31 -16 -64 -29 -74 -29 -10 0 -32 -10 -49 -23 -38 -29 -305 -161 -312
-155 -2 3 18 20 45 39 33 22 49 39 46 50 -4 11 9 20 45 33 27 10 54 15 59 12
18 -11 60 5 54 20 -4 10 3 14 25 14 17 0 32 3 34 8 6 14 92 72 107 72 16 1 83
50 68 50 -4 0 -23 -6 -42 -14 -18 -8 -35 -13 -37 -10 -2 2 -59 -23 -127 -56
-67 -33 -125 -60 -128 -60 -4 0 -15 -7 -25 -17 -22 -19 -36 -10 -18 12 7 9 10
19 6 23 -4 4 -16 -3 -26 -15 -10 -13 -23 -23 -28 -23 -6 0 -40 -20 -76 -45
-62 -42 -116 -66 -116 -50 0 11 43 45 73 56 27 11 37 29 16 29 -8 0 -7 5 1 15
7 9 19 14 27 11 7 -3 13 -1 13 3 0 15 33 22 42 9 6 -10 8 -10 8 -1 0 7 -9 17
-21 23 -17 10 -27 7 -57 -17 -60 -45 -92 -76 -92 -87 0 -6 -9 -17 -21 -24 -16
-11 -18 -16 -9 -28 8 -9 9 -14 2 -14 -6 0 -12 6 -14 12 -3 9 -17 3 -42 -17
-77 -60 -77 -61 -87 -42 -10 17 -12 16 -65 -12 -76 -41 -327 -276 -381 -356
-15 -22 -34 -47 -43 -56 -49 -51 -61 -71 -54 -91 4 -15 2 -19 -7 -16 -21 8
-12 48 19 92 15 21 32 47 38 58 6 11 21 31 33 45 13 13 20 27 18 30 -11 10
-74 -65 -117 -137 -11 -19 -34 -57 -51 -85 -17 -27 -37 -67 -46 -87 -9 -21
-20 -38 -24 -38 -5 0 -6 -6 -3 -13 3 -8 -2 -20 -11 -27 -11 -9 -14 -22 -9 -46
4 -22 2 -34 -5 -34 -6 0 -8 7 -5 15 4 8 2 15 -2 15 -10 0 -43 -70 -65 -135 -8
-22 -24 -59 -36 -82 -24 -44 -29 -73 -14 -73 5 0 7 -17 5 -37 -2 -21 -5 -45
-6 -53 -1 -8 -9 -30 -19 -47 -10 -18 -16 -39 -13 -47 3 -8 1 -17 -5 -21 -6 -3
-11 -19 -11 -34 0 -15 -5 -32 -12 -39 -6 -6 -13 -29 -14 -49 -2 -21 -7 -62
-12 -91 -7 -40 -6 -57 4 -66 9 -9 9 -17 3 -23 -6 -6 -10 -46 -10 -89 1 -149 5
-183 25 -201 18 -17 18 -17 13 0 -10 27 -2 20 27 -23 15 -23 24 -45 21 -50 -3
-6 0 -10 8 -10 9 0 13 -9 12 -24 -2 -13 3 -37 11 -52 9 -17 11 -31 5 -37 -10
-10 4 -72 25 -102 8 -11 14 -33 14 -49 0 -28 -1 -29 -14 -10 -17 23 -32 13
-18 -13 6 -10 13 -39 17 -65 4 -27 11 -48 16 -48 4 0 6 17 3 38 -5 37 -5 37
10 12 8 -14 15 -36 16 -49 0 -13 13 -66 30 -118 17 -51 30 -98 30 -104 0 -21
91 -209 101 -209 18 0 16 -29 -2 -33 -15 -4 -25 5 -43 41 -13 26 -27 58 -31
72 -4 13 -14 30 -21 38 -8 7 -14 22 -14 32 0 10 -4 21 -10 25 -5 3 -7 12 -3
21 3 9 0 14 -8 12 -10 -2 -15 9 -17 37 -2 29 -11 46 -30 62 -21 18 -23 22 -10
23 12 0 15 5 11 17 -5 12 -3 14 7 8 10 -6 11 -2 6 21 -10 40 -26 54 -26 24 0
-24 0 -24 -14 -5 -7 11 -16 39 -19 62 -2 23 -12 56 -21 74 -9 18 -16 44 -16
59 0 14 -5 31 -11 37 -7 7 -12 31 -14 55 -1 24 -7 67 -13 97 -10 43 -10 56 0
62 9 6 8 13 -6 28 -17 19 -43 20 -31 1 3 -5 7 -26 10 -47 9 -87 34 -212 54
-277 11 -37 21 -80 21 -94 0 -14 8 -44 19 -66 10 -23 24 -63 30 -89 6 -27 24
-76 40 -110 15 -34 45 -102 65 -151 21 -49 44 -95 51 -102 7 -8 16 -32 20 -54
4 -22 11 -40 17 -40 6 0 7 8 4 17 -16 42 36 -24 64 -81 17 -34 48 -80 70 -104
22 -24 40 -47 40 -53 0 -5 28 -38 61 -72 34 -34 68 -75 75 -92 13 -30 235
-255 251 -255 5 0 10 13 11 29 2 20 -4 33 -21 44 -13 8 -41 42 -62 74 -38 58
-122 136 -137 127 -4 -3 17 -30 47 -61 30 -31 53 -59 50 -62 -3 -3 -35 24 -70
59 -46 45 -61 66 -52 72 9 6 4 15 -18 33 -17 14 -30 35 -30 47 0 18 -5 22 -22
21 -17 -2 -27 6 -39 30 -9 17 -28 45 -43 61 l-26 28 25 -7 c25 -7 25 -7 -4 24
-17 17 -34 31 -39 31 -12 0 -46 42 -47 57 0 6 -3 13 -8 15 -4 2 -25 25 -47 51
-31 39 -36 50 -24 58 22 13 26 11 39 -20 6 -16 20 -37 31 -47 10 -9 16 -21 13
-25 -3 -5 2 -12 10 -15 9 -3 16 -11 16 -17 0 -6 25 -35 55 -64 31 -30 53 -59
49 -65 -8 -12 72 -96 104 -109 12 -5 22 -17 22 -27 0 -20 18 -42 35 -42 6 0
42 -29 80 -64 63 -58 103 -85 148 -100 9 -3 20 -14 24 -23 10 -27 55 -73 81
-84 12 -5 22 -17 22 -28 0 -18 45 -64 72 -74 7 -2 10 -8 6 -12 -4 -4 -36 3
-72 15 -51 17 -66 26 -66 41 0 12 -10 23 -26 29 -40 16 -54 12 -54 -14 0 -17
16 -35 60 -67 33 -24 56 -45 51 -47 -12 -4 -104 63 -148 107 -18 17 -39 31
-47 31 -9 0 -16 7 -16 15 0 8 -9 19 -21 26 -12 6 -43 33 -70 60 -27 27 -53 49
-58 49 -5 0 -12 8 -16 18 -3 11 -23 33 -45 51 -22 18 -40 38 -40 46 0 8 -7 15
-15 15 -8 0 -15 -4 -15 -8 0 -16 210 -235 285 -297 26 -22 73 -61 103 -88 30
-26 61 -47 67 -47 7 0 19 -7 26 -17 8 -9 29 -22 48 -30 19 -8 49 -27 68 -41
l33 -27 -47 -6 c-27 -3 -49 -2 -51 2 -2 4 -9 6 -16 3 -8 -3 -16 4 -19 16 -4
17 -9 19 -32 10 -29 -11 -45 -6 -45 14 0 8 -15 17 -34 20 -19 4 -36 13 -39 20
-4 10 -21 14 -52 14 -25 -1 -55 4 -68 10 -40 21 -82 35 -94 33 -7 -1 -13 5
-13 14 0 10 -10 15 -30 15 -23 0 -30 4 -30 20 0 16 -9 21 -50 26 -27 4 -50 12
-50 18 0 17 -37 46 -60 46 -10 0 -22 5 -25 10 -3 6 -14 10 -23 10 -14 0 -15
-2 -2 -10 8 -5 11 -12 8 -16 -4 -3 -24 8 -45 25 -21 17 -43 31 -49 31 -21 0
-94 75 -94 97 0 16 -5 20 -19 16 -13 -3 -28 8 -50 36 -18 23 -36 39 -40 36
-15 -9 -52 41 -45 60 6 14 3 16 -14 10 -15 -4 -22 -2 -22 7 0 8 -11 29 -25 48
-16 22 -25 28 -25 17 0 -10 -5 -14 -15 -11 -8 4 -15 17 -15 30 0 15 -6 24 -15
24 -9 0 -18 7 -21 15 -4 8 -12 15 -20 15 -8 0 -14 6 -14 13 0 7 -19 31 -41 52
-39 38 -40 38 -25 10 9 -16 30 -48 46 -70 16 -22 29 -46 30 -52 0 -7 6 -13 13
-13 13 0 87 -92 87 -109 0 -6 9 -15 20 -21 11 -6 17 -16 14 -25 -4 -10 0 -15
13 -15 10 0 50 -33 90 -72 39 -40 83 -81 98 -91 18 -13 24 -24 20 -38 -5 -14
-2 -19 12 -19 24 0 43 -19 43 -42 0 -14 8 -18 33 -18 18 0 40 -8 49 -18 9 -9
28 -25 43 -36 21 -14 24 -20 14 -27 -10 -6 -7 -9 12 -9 14 0 59 -22 100 -48
41 -27 109 -65 151 -85 46 -23 79 -45 83 -57 6 -19 18 -23 78 -24 15 0 27 -3
27 -6 0 -14 79 -49 138 -61 39 -8 62 -18 62 -27 0 -9 7 -11 20 -7 15 5 20 2
20 -13 0 -15 9 -21 41 -26 23 -4 46 -2 53 3 9 7 17 4 29 -9 25 -29 113 -29
122 1 4 13 12 18 22 15 8 -3 19 -6 24 -6 18 0 9 -17 -16 -30 -32 -17 -33 -32
-1 -24 13 3 40 -2 62 -11 36 -15 39 -15 66 5 25 19 28 19 37 2 9 -16 10 -16
16 1 11 27 28 20 21 -8 -8 -30 -1 -31 55 -6 42 19 47 19 101 4 48 -13 56 -19
46 -30 -9 -11 -9 -16 1 -22 18 -11 125 -4 129 8 6 19 20 12 24 -11 3 -21 11
-24 78 -31 64 -6 77 -5 88 10 17 23 15 30 -8 29 -42 -2 -22 19 23 25 55 6 71
-5 33 -23 -45 -20 -22 -78 24 -63 12 4 27 1 36 -6 11 -9 18 -8 32 5 10 9 23
16 29 16 6 0 20 16 32 35 21 36 35 43 46 25 4 -6 11 -8 16 -5 15 10 10 -7 -6
-19 -9 -7 -12 -16 -6 -25 13 -20 39 -6 51 25 15 39 21 24 9 -20 -6 -21 -9 -40
-6 -42 2 -2 40 13 83 33 75 36 84 38 184 39 110 1 150 7 345 56 270 67 365
103 365 139 0 32 20 31 26 0 4 -17 13 -31 20 -31 19 0 18 29 -1 36 -19 8 -20
34 -1 34 28 0 122 34 142 52 13 11 36 18 62 18 22 0 44 5 47 11 12 18 -4 23
-42 11 -21 -6 -41 -8 -45 -4 -11 11 91 78 130 87 42 9 43 30 2 21 -45 -9 -28
9 40 44 72 36 77 37 56 5 l-16 -25 37 0 c24 0 52 9 75 25 20 14 42 25 47 25 6
0 11 5 11 11 0 6 8 8 18 5 16 -6 16 -5 0 8 -26 19 -24 40 2 26 11 -6 21 -7 21
-3 1 4 2 15 3 23 0 8 9 14 19 12 9 -2 17 1 17 6 0 5 14 15 30 22 39 16 34 23
-8 11 -20 -6 -32 -6 -32 0 0 5 5 9 10 9 6 0 28 17 48 38 50 49 90 82 100 82 5
0 28 18 53 41 l44 41 -44 -25 c-25 -14 -53 -33 -63 -41 -21 -18 -38 -21 -38
-6 0 6 6 10 14 10 8 0 16 7 20 15 3 8 11 15 17 15 7 0 31 18 55 40 24 22 50
40 58 40 8 0 16 3 18 8 6 14 140 126 154 128 15 2 63 54 64 68 0 4 -9 6 -20 3
-29 -7 -25 7 7 24 14 8 39 26 56 42 16 15 33 27 38 27 5 0 9 6 9 13 0 7 23 35
51 62 53 52 76 85 61 85 -5 0 -38 -34 -73 -75 -35 -41 -69 -75 -75 -75 -6 0
-18 -7 -25 -16 -8 -9 -31 -27 -51 -40 -68 -43 -77 -27 -21 35 26 30 40 38 48
31 9 -8 21 -1 41 25 16 19 75 84 131 143 56 59 100 109 97 111 -2 2 -46 -36
-99 -85 -52 -49 -115 -100 -140 -113 -25 -13 -45 -29 -45 -37 0 -8 -9 -14 -20
-14 -11 0 -37 -18 -57 -40 -21 -22 -46 -40 -55 -40 -9 0 -20 -4 -23 -10 -6 -9
-122 -81 -175 -108 -14 -7 -40 -23 -58 -37 -18 -13 -39 -22 -46 -19 -7 3 -21
-4 -31 -16 -10 -11 -28 -20 -39 -20 -12 0 -27 -9 -34 -21 -8 -13 -21 -19 -35
-17 -28 3 -92 -26 -109 -51 -8 -12 -36 -22 -78 -29 -36 -7 -77 -21 -92 -32
-16 -12 -70 -29 -130 -41 -57 -11 -123 -30 -148 -42 -25 -12 -63 -22 -85 -23
-22 -1 -47 -5 -56 -9 -9 -3 -20 -5 -25 -3 -5 2 -23 -10 -39 -25 -28 -26 -36
-28 -100 -26 -75 2 -142 -7 -162 -24 -9 -6 -17 -6 -26 2 -10 8 -31 5 -83 -10
-107 -31 -146 -40 -168 -38 -42 3 -47 0 -40 -27 6 -22 4 -25 -12 -22 -11 2
-19 12 -19 23 0 18 -7 20 -60 19 -33 0 -99 -3 -147 -6 -48 -4 -90 -3 -93 1 -5
9 -80 25 -105 24 -7 -1 -26 5 -40 12 -15 8 -51 15 -81 18 -30 2 -64 9 -76 15
-32 17 -39 15 -19 -7 14 -15 15 -19 3 -24 -8 -3 -25 1 -37 10 -15 11 -25 12
-32 5 -8 -8 -23 -4 -51 11 -29 16 -41 19 -44 10 -6 -17 -23 -17 -23 0 0 19
-38 52 -85 74 -22 10 -45 29 -52 43 -7 14 -23 34 -35 44 -15 13 -19 20 -10 23
26 9 0 21 -28 13 -31 -9 -34 -7 -30 25 1 15 -1 17 -10 8 -18 -17 -63 5 -57 28
3 10 -7 26 -25 40 -40 32 -79 94 -72 114 5 11 2 14 -10 9 -12 -5 -16 0 -16 20
0 15 -7 29 -15 32 -9 4 -14 11 -13 18 1 6 -6 29 -15 50 -22 50 -14 60 8 12 10
-20 20 -36 24 -36 4 0 15 -15 25 -32 29 -51 72 -87 96 -81 15 4 20 1 20 -15 0
-26 24 -50 58 -58 15 -3 52 -33 83 -65 32 -33 60 -59 63 -59 13 0 5 28 -9 34
-20 7 -19 26 0 26 9 0 18 -8 22 -17 13 -39 93 -84 93 -53 0 5 -8 14 -17 19
-10 6 -14 11 -10 11 14 0 71 -34 80 -47 4 -7 17 -13 27 -13 10 0 22 -4 25 -10
10 -15 35 -12 35 5 0 8 -5 15 -11 15 -5 0 -8 4 -4 10 7 11 45 -4 90 -34 16
-11 35 -21 42 -22 7 -1 20 -9 28 -18 16 -15 85 -39 93 -31 8 8 -10 25 -28 25
-18 0 -36 17 -28 26 6 6 98 -39 98 -48 0 -4 -9 -10 -20 -13 -11 -3 -20 -11
-20 -16 0 -5 11 -2 25 7 14 9 32 14 40 10 31 -12 13 14 -36 51 -28 21 -67 53
-87 71 l-37 32 30 -6 c17 -4 34 -11 39 -15 6 -5 20 -9 32 -9 13 0 26 -4 29
-10 3 -5 13 -10 22 -10 12 0 13 3 4 14 -7 8 -71 34 -143 57 -116 38 -139 49
-194 96 -34 29 -73 53 -86 54 -35 1 -63 14 -63 30 -1 8 -5 27 -9 42 -7 24 -13
27 -32 23 -20 -5 -24 -2 -30 29 -4 21 -13 37 -25 40 -21 7 -26 25 -6 25 6 1
-5 9 -26 19 -28 13 -46 32 -68 74 -16 31 -29 60 -28 64 3 20 -3 32 -28 57 -14
15 -27 37 -28 49 -1 14 -8 21 -19 19 -18 -3 -22 18 -4 36 13 13 -5 42 -27 42
-16 0 -39 55 -31 76 3 8 -1 22 -9 30 -19 20 -19 74 0 100 19 25 19 32 -2 36
-10 2 -17 15 -19 33 -2 17 -6 47 -10 68 -4 24 -2 37 5 37 6 0 11 -4 11 -10 0
-17 17 -11 24 8 3 9 11 26 18 37 7 11 14 22 15 24 2 2 12 -4 23 -14 11 -10 20
-14 21 -9 1 5 2 16 3 24 2 8 3 23 4 33 1 9 8 17 15 17 10 0 12 15 9 59 -6 82
32 214 60 206 13 -5 18 -1 18 14 0 11 21 44 46 73 74 86 84 99 84 108 0 5 16
18 36 31 28 17 38 19 44 9 6 -9 23 -5 72 19 36 18 92 37 125 44 44 8 62 16 69
32 6 13 18 19 34 18 14 -1 19 1 13 3 -21 9 -15 21 18 34 24 10 36 11 50 2 14
-9 20 -9 27 3 7 14 12 13 42 -1 26 -13 37 -14 51 -5 15 8 19 8 19 -1 0 -9 3
-9 12 0 9 9 16 8 30 -5 28 -25 22 -36 -16 -29 -22 4 -37 2 -42 -5 -5 -8 -3 -9
5 -4 12 7 30 1 83 -26 10 -5 19 -5 23 0 3 5 -1 12 -7 14 -10 4 -9 8 2 16 13 9
12 12 -5 25 -20 15 -20 15 1 16 13 0 24 -8 27 -20 3 -12 14 -20 26 -20 12 0
21 -6 21 -14 0 -11 9 -13 35 -9 28 4 35 2 35 -10 0 -9 6 -14 13 -12 6 3 27 -9
46 -25 18 -17 36 -30 40 -30 16 0 142 -140 135 -151 -5 -9 15 -24 22 -16 6 5
-14 41 -53 97 -30 44 -41 54 -113 114 -49 41 -11 25 89 -37 92 -57 246 -195
257 -230 3 -12 15 -32 26 -44 11 -12 17 -26 13 -32 -3 -6 1 -11 9 -11 9 0 16
-7 16 -15 0 -8 -4 -15 -10 -15 -18 0 -10 -18 10 -23 24 -6 39 -39 21 -45 -9
-3 -9 -7 -1 -17 16 -19 22 -205 8 -247 -9 -29 -25 -67 -36 -90 -2 -5 1 -8 7
-8 6 0 11 6 11 14 0 7 6 19 14 26 8 6 17 24 20 38 2 15 3 -5 0 -45 -5 -80 -17
-122 -41 -140 -9 -7 -14 -15 -11 -19 10 -9 43 16 67 52 13 19 28 31 33 28 5
-3 2 -14 -8 -25 -9 -11 -14 -22 -11 -25 8 -8 46 36 47 54 0 6 11 12 24 12 56
0 104 69 109 160 2 30 16 84 31 120 35 82 43 155 21 180 -14 15 -15 24 -5 58
13 42 10 59 -40 197 -12 33 -24 83 -27 110 -5 56 -46 137 -66 129 -7 -2 -21 4
-32 15 -14 17 -15 23 -5 36 16 19 6 45 -17 45 -10 0 -34 14 -53 31 -32 27 -33
30 -10 23 25 -7 25 -7 6 15 -11 11 -27 21 -36 21 -16 0 -60 39 -60 53 0 4 13
7 29 7 34 0 51 18 24 26 -63 18 -125 69 -71 57 49 -10 -30 45 -89 64 -69 21
-102 42 -103 65 0 10 -11 20 -26 24 -16 4 -23 12 -20 20 4 10 -4 14 -30 14
-19 0 -46 7 -59 16 -13 9 -30 17 -37 18 -7 2 -26 8 -41 14 -16 7 -33 12 -38
12 -5 0 -9 5 -9 11 0 14 -18 31 -57 54 -64 37 -28 49 44 14 24 -11 43 -24 43
-29 0 -4 11 -10 25 -12 14 -3 25 -2 25 2 0 11 -40 50 -52 50 -6 0 -9 2 -7 5 6
6 141 -34 153 -46 6 -5 18 -9 27 -9 9 0 22 -7 30 -16 7 -9 30 -23 51 -31 21
-8 38 -21 38 -28 0 -7 7 -15 15 -19 28 -10 15 19 -19 47 -19 15 -39 27 -44 27
-5 0 -19 9 -32 20 -13 11 -45 28 -72 38 -26 9 -48 20 -48 24 0 5 -9 8 -20 8
-18 0 -47 10 -96 32 -11 5 -39 11 -61 12 -22 2 -45 6 -49 9 -5 2 -29 5 -53 5
-24 1 -56 5 -70 11 -38 15 -167 32 -185 25 -9 -3 -16 -1 -16 6 0 12 -24 40
-36 40 -3 0 -1 -7 6 -15 19 -23 4 -30 -33 -17 -47 17 -82 15 -42 -2 27 -11 28
-13 10 -19 -11 -3 -53 -9 -94 -12 -61 -6 -219 -49 -293 -80 -13 -5 -18 -3 -18
8 0 16 81 52 140 63 19 4 44 11 54 17 11 5 41 11 68 12 52 3 64 8 54 23 -5 9
-58 9 -86 -1 -8 -3 -46 -13 -85 -22 -38 -10 -76 -22 -82 -28 -7 -5 -13 -6 -13
-3 0 4 -12 1 -27 -7 -22 -11 -97 -48 -155 -75 -5 -2 -8 2 -8 8 0 20 27 40 54
40 14 0 35 9 46 20 11 11 29 20 41 20 28 0 52 26 46 50 -3 11 -1 20 4 20 5 0
9 -4 9 -10 0 -5 7 -10 15 -10 8 0 12 6 9 14 -5 14 30 33 50 28 5 -2 23 4 40
12 35 16 94 19 113 4 7 -5 17 -7 23 -3 6 4 22 0 35 -9 27 -18 35 -20 35 -8 0
15 -55 39 -89 40 -37 1 -69 21 -35 23 10 1 25 1 32 0 6 -1 12 3 12 8 0 13 -15
22 -23 15 -3 -4 -37 -8 -75 -9 -43 -2 -82 -10 -103 -21 -19 -10 -38 -17 -43
-15 -5 1 -23 -5 -40 -13 -17 -8 -65 -29 -106 -46 -41 -17 -100 -42 -130 -57
-30 -14 -64 -29 -75 -33 -11 -4 -37 -15 -58 -24 -39 -17 -82 -22 -73 -8 2 4
29 20 60 36 31 16 56 33 56 38 0 4 7 8 15 8 8 0 15 4 15 10 0 5 11 12 25 16
13 3 29 12 36 20 6 8 21 14 33 14 24 0 74 35 64 45 -3 4 -20 -1 -37 -9 -17 -9
-33 -16 -36 -16 -16 1 -193 -108 -232 -143 -12 -10 -19 -25 -16 -33 6 -17 -1
-18 -28 -3 -26 14 -49 -4 -42 -33 5 -17 3 -19 -16 -13 -15 5 -21 2 -21 -9 0
-17 -34 -56 -49 -56 -5 0 -16 -12 -26 -26 -16 -25 -16 -25 7 -22 15 2 24 -3
26 -15 2 -10 -1 -16 -7 -15 -5 2 -23 -13 -40 -32 -21 -24 -30 -30 -31 -19 0 9
7 22 15 29 16 13 21 40 7 40 -14 0 -44 -68 -36 -81 5 -9 2 -11 -9 -6 -9 3 -19
2 -23 -4 -3 -6 -12 -8 -20 -5 -8 3 -14 1 -14 -4 0 -6 7 -10 16 -10 10 0 2 -13
-23 -37 -21 -20 -41 -36 -45 -35 -5 1 -8 -7 -8 -18 0 -26 -12 -25 -36 1 -11
12 -14 23 -9 27 19 13 56 93 49 104 -4 7 -3 8 4 4 13 -8 46 50 38 69 -3 8 5
16 19 19 15 4 25 15 27 29 2 13 11 23 23 25 22 3 51 40 39 50 -4 4 -9 1 -11
-5 -5 -15 -33 -18 -33 -4 0 17 28 32 66 35 33 3 39 7 36 25 -2 15 1 19 12 15
12 -5 16 1 16 25 0 32 8 39 26 21 12 -12 55 9 62 30 4 11 -1 10 -22 -4 -15
-10 -30 -16 -32 -13 -9 8 27 37 45 37 25 0 32 10 20 31 -8 15 -6 19 8 17 36
-3 48 3 67 30 35 53 80 75 151 76 55 1 65 3 65 18 0 21 4 22 30 8 13 -7 21 -6
30 5 10 12 9 15 -9 15 -11 0 -21 5 -21 11 0 7 12 10 33 6 33 -5 67 11 67 32 0
6 5 11 10 11 6 0 10 -7 10 -16 0 -11 5 -14 16 -10 9 3 18 6 20 6 2 0 4 5 4 10
0 6 -7 10 -15 10 -8 0 -15 5 -15 11 0 6 9 8 20 4 14 -5 20 -2 20 9 0 21 27 20
39 -1 9 -16 12 -16 21 -3 5 8 10 23 10 33 0 11 8 17 23 18 12 1 34 2 49 3 16
1 33 7 40 14 7 7 19 12 28 12 8 0 32 9 52 20 38 20 88 19 117 -4 10 -8 17 -5
28 9 11 14 17 16 20 8 7 -20 23 -15 23 6 0 17 6 19 58 17 31 -2 70 -6 85 -11
21 -6 31 -3 41 10 8 12 15 14 20 7 4 -7 42 -9 114 -6 66 4 118 1 136 -6 20 -7
32 -8 40 0 14 14 26 12 26 -5 0 -11 10 -13 50 -8 44 5 50 4 44 -11 -5 -13 1
-16 29 -16 19 0 37 -5 39 -12 2 -6 23 -12 46 -13 23 0 44 -4 48 -8 4 -4 12 -3
19 3 7 6 27 -2 60 -25 27 -19 56 -35 66 -35 9 0 22 -7 30 -16 7 -8 20 -13 30
-11 12 3 16 0 12 -9 -3 -9 2 -14 13 -14 11 0 26 -5 34 -10 12 -7 12 -12 2 -22
-6 -6 -12 -18 -12 -25 0 -11 4 -11 19 -1 17 10 25 7 56 -22 60 -56 67 -64 120
-125 28 -31 66 -74 85 -95 85 -91 120 -132 120 -141 0 -5 9 -9 19 -9 21 0 37
-32 32 -62 -4 -32 17 -19 24 14 l7 31 19 -24 c10 -13 16 -31 13 -40 -2 -10 2
-19 12 -23 13 -5 14 -9 4 -20 -9 -12 -6 -18 14 -31 14 -10 23 -21 20 -27 -3
-5 -1 -15 5 -22 6 -7 15 -30 20 -52 l9 -39 1 48 c1 48 21 60 21 12 0 -13 16
-56 35 -97 31 -63 33 -74 20 -84 -19 -14 -19 -33 -1 -53 11 -12 13 -30 7 -77
-4 -34 -4 -70 0 -80 11 -27 11 -92 0 -96 -5 -1 -16 -53 -25 -114 -9 -62 -26
-140 -37 -174 -11 -34 -18 -64 -16 -67 3 -2 22 26 43 64 21 37 50 83 66 101
15 18 28 40 28 50 0 9 7 26 15 36 8 11 15 32 15 47 0 15 7 29 16 33 12 5 14 9
5 20 -13 16 -4 46 14 46 14 0 13 -22 -5 -90 -6 -25 -16 -64 -21 -87 -6 -24
-14 -43 -19 -43 -4 0 -10 -7 -14 -15 -3 -8 0 -15 7 -15 23 0 92 191 103 290 3
25 12 63 20 85 7 22 14 63 14 91 0 34 5 56 15 64 11 9 15 35 15 101 0 53 4 89
10 89 6 0 10 -11 10 -25 0 -14 5 -25 10 -25 14 0 2 77 -18 117 -16 31 -15 33
3 48 20 14 20 15 -2 21 -15 4 -27 21 -37 52 -20 57 -20 73 1 47 15 -19 15 -19
9 9 -4 15 -10 41 -13 57 -3 16 -9 29 -14 29 -5 0 -6 6 -3 14 3 7 -9 34 -26 59
-17 25 -37 61 -45 81 -16 39 -35 56 -35 32 0 -9 -5 -16 -10 -16 -6 0 -8 10 -4
24 4 16 1 25 -11 30 -13 5 -15 2 -9 -16 6 -20 5 -21 -10 -9 -22 18 -34 5 -18
-19 19 -30 -1 -24 -31 10 -34 38 -34 44 3 37 22 -5 30 -3 30 7 0 16 -49 60
-91 81 -19 10 -26 20 -22 30 9 25 -26 55 -64 55 -18 0 -33 5 -33 10 0 6 7 10
15 10 21 0 19 8 -12 45 -90 107 -93 113 -84 138 12 31 -20 101 -58 125 -14 9
-30 22 -34 29 -10 16 -72 43 -97 43 -10 0 -24 7 -31 16 -8 9 -31 28 -53 43
-22 14 -51 34 -65 43 -14 10 -33 21 -41 24 -59 24 -82 37 -86 49 -3 8 -19 17
-36 20 -16 4 -32 13 -34 20 -6 14 -49 29 -76 26 -9 -1 -19 3 -23 9 -8 13 -35
13 -35 0 0 -5 6 -10 13 -10 32 0 87 -22 87 -35 0 -18 -4 -18 -30 -5 -11 6 -28
14 -39 19 -10 5 -40 12 -67 16 -27 4 -62 13 -79 20 -16 7 -50 12 -75 11 -36
-1 -45 -4 -44 -18 2 -23 -4 -22 -41 2 -35 23 -82 25 -109 5 -14 -10 -24 -11
-38 -4 -10 5 -22 8 -27 5 -5 -3 -14 0 -20 8 -9 11 -9 15 1 19 7 2 10 8 6 12
-5 5 -16 1 -26 -8 -22 -20 -33 -22 -27 -4 4 9 -15 11 -81 9 -60 -3 -84 0 -79
7 3 6 37 11 76 11 44 0 69 4 69 11 0 8 -29 10 -95 7 -73 -3 -95 -1 -95 9 0 15
-2 15 -137 -2z m122 -15 c4 -6 -6 -10 -22 -10 -16 0 -34 -5 -41 -12 -9 -9 -15
-9 -24 0 -9 9 -6 14 13 21 32 13 66 13 74 1z m-171 -32 c-3 -5 -9 -7 -12 -4
-3 3 -12 0 -21 -8 -26 -23 -67 -30 -74 -12 -3 9 0 19 8 23 21 12 106 12 99 1z
m206 -28 c23 15 34 12 20 -5 -10 -12 -10 -15 3 -15 8 0 17 6 20 13 3 9 8 9 21
-2 14 -12 19 -12 25 -2 10 16 43 11 49 -6 2 -8 -5 -13 -18 -13 -16 0 -20 -4
-16 -15 6 -18 -9 -19 -53 -4 -17 6 -39 8 -49 3 -9 -4 -40 -8 -68 -9 -45 -1
-72 -8 -139 -35 -11 -5 -33 -11 -50 -13 -16 -3 -38 -9 -47 -12 -10 -4 -18 -3
-18 2 0 5 33 19 73 33 39 13 77 27 83 32 6 5 19 6 28 2 9 -3 16 -1 16 5 0 6
-6 11 -12 11 -7 0 -5 5 5 11 9 5 21 8 26 4 5 -3 12 -1 16 5 10 16 38 12 31 -5
-3 -8 -1 -15 4 -15 6 0 10 10 10 21 0 16 3 19 13 11 8 -7 18 -7 27 -2z m432
-26 c5 -3 8 -10 8 -15 0 -6 -6 -7 -12 -3 -7 5 -27 7 -45 5 -25 -2 -33 1 -33
14 0 14 6 16 37 10 21 -4 41 -9 45 -11z m118 -29 c15 5 20 2 20 -10 0 -12 -5
-15 -16 -11 -9 3 -27 9 -40 12 -13 3 -21 10 -18 16 3 5 11 4 19 -2 8 -7 23 -9
35 -5z m-850 -9 c0 -16 -14 -27 -52 -44 -36 -15 -37 1 -2 33 30 28 54 32 54
11z m944 -3 c3 -10 9 -24 12 -30 3 -8 -1 -13 -10 -13 -9 0 -16 -4 -16 -10 0
-5 -5 -10 -11 -10 -8 0 -8 4 1 15 14 17 4 39 -16 31 -20 -8 -17 11 4 23 24 14
29 13 36 -6z m-359 -13 c3 -5 1 -10 -4 -10 -6 0 -11 5 -11 10 0 6 2 10 4 10 3
0 8 -4 11 -10z m-687 -29 c-10 -16 -15 -17 -26 -8 -12 9 -11 12 5 18 30 12 34
10 21 -10z m882 9 c3 -1 14 -1 25 0 19 2 19 1 2 -17 -14 -14 -19 -15 -26 -5
-4 7 -12 12 -17 11 -18 -3 -34 1 -34 9 0 7 33 8 50 2z m320 -10 c11 -20 12
-20 -37 -4 -15 4 -15 6 -3 14 22 14 28 12 40 -10z m-1280 -8 c0 -4 -13 -13
-30 -19 -35 -13 -41 -1 -7 15 27 13 37 14 37 4z m51 -27 l24 7 -23 -23 c-16
-18 -25 -21 -30 -12 -6 9 -15 6 -35 -13 -35 -32 -35 -17 0 23 16 19 30 27 34
21 4 -6 17 -7 30 -3z m669 11 c0 -11 -19 -15 -25 -6 -3 5 1 10 9 10 9 0 16 -2
16 -4z m500 -6 c20 -12 9 -21 -18 -13 -12 3 -19 9 -16 14 7 11 15 11 34 -1z
m-670 -21 c0 -5 -13 -9 -30 -9 -39 0 -39 15 0 16 17 1 30 -3 30 -7z m725 -8
c3 -5 1 -12 -5 -16 -5 -3 -10 1 -10 9 0 18 6 21 15 7z m-1335 -6 c0 -8 -103
-55 -108 -50 -7 7 -3 10 48 33 46 22 60 26 60 17z m1200 -15 c0 -5 -4 -10 -9
-10 -6 0 -13 5 -16 10 -3 6 1 10 9 10 9 0 16 -4 16 -10z m-1340 -4 c0 -3 -4
-8 -10 -11 -5 -3 -10 -1 -10 4 0 6 5 11 10 11 6 0 10 -2 10 -4z m-220 -26 c0
-5 -4 -10 -10 -10 -5 0 -10 5 -10 10 0 6 5 10 10 10 6 0 10 -4 10 -10z m-46
-24 c-3 -7 -24 -21 -47 -30 l-42 -16 35 30 c37 31 63 39 54 16z m361 4 c-3 -5
-11 -10 -16 -10 -6 0 -7 5 -4 10 3 6 11 10 16 10 6 0 7 -4 4 -10z m1745 -36
c0 -2 -7 -4 -15 -4 -8 0 -15 4 -15 10 0 5 7 7 15 4 8 -4 15 -8 15 -10z m-1899
-20 c12 -14 11 -16 -5 -13 -11 2 -21 10 -24 17 -5 17 13 15 29 -4z m1699 6 c0
-5 -2 -10 -4 -10 -3 0 -8 5 -11 10 -3 6 -1 10 4 10 6 0 11 -4 11 -10z m176
-12 l19 -21 -27 18 c-29 18 -34 25 -20 25 5 0 17 -10 28 -22z m-72 -54 c3 -8
0 -14 -6 -14 -14 0 -48 30 -48 41 0 13 48 -12 54 -27z m-1884 16 c0 -5 -7 -10
-15 -10 -8 0 -15 5 -15 10 0 6 7 10 15 10 8 0 15 -4 15 -10z m-536 -92 c-44
-45 -105 -107 -137 -138 -55 -52 -93 -107 -82 -118 2 -3 11 1 19 7 11 9 10 3
-4 -26 -20 -42 -76 -90 -82 -71 -3 7 -10 8 -17 4 -11 -7 -11 -10 0 -17 11 -7
3 -19 -32 -51 -25 -24 -54 -58 -64 -75 -11 -18 -23 -33 -27 -33 -16 0 -18 21
-4 35 8 8 17 23 20 33 4 9 24 30 46 45 39 27 55 55 26 44 -29 -11 -24 7 9 33
30 24 32 28 18 42 -13 14 -13 18 8 42 22 25 47 37 34 16 -8 -13 6 -13 25 0 13
9 13 11 1 19 -12 8 -10 16 13 45 15 20 29 36 31 36 9 0 -9 -46 -23 -57 -9 -7
-13 -16 -9 -19 14 -15 67 57 67 91 0 7 7 19 16 26 15 12 16 11 9 -11 -6 -20 2
-15 38 24 25 27 45 53 44 57 -3 11 104 98 122 99 7 0 -22 -37 -65 -82z m2571
35 c31 -28 45 -48 37 -50 -16 -6 -34 9 -73 59 -41 52 -25 48 36 -9z m-2025 33
c0 -3 -4 -8 -10 -11 -5 -3 -10 -1 -10 4 0 6 5 11 10 11 6 0 10 -2 10 -4z
m2139 -27 c30 -30 38 -49 24 -63 -9 -8 -83 64 -83 81 0 22 27 14 59 -18z
m-109 -110 c0 -13 -9 -11 -26 5 -8 8 -14 23 -14 33 1 16 3 15 20 -6 11 -13 20
-27 20 -32z m155 -28 c10 -18 -17 -23 -33 -7 -15 15 -15 16 5 16 12 0 24 -4
28 -9z m-65 -11 c0 -5 -4 -10 -9 -10 -6 0 -13 5 -16 10 -3 6 1 10 9 10 9 0 16
-4 16 -10z m-34 -57 c-7 -7 -26 7 -26 19 0 6 6 6 15 -2 9 -7 13 -15 11 -17z
m-2786 -33 c-6 -11 -15 -20 -21 -20 -6 0 -6 7 1 20 6 11 15 20 21 20 6 0 6 -7
-1 -20z m2930 -28 c0 -13 -12 -22 -22 -16 -10 6 -1 24 13 24 5 0 9 -4 9 -8z
m59 -48 c2 -2 -10 -4 -27 -4 -17 0 -34 4 -37 10 -5 9 53 3 64 -6z m-471 -21
c5 -18 -23 -16 -39 3 -11 14 -10 15 11 12 13 -1 25 -9 28 -15z m100 -93 c2
-14 9 -31 14 -37 22 -28 -10 -11 -40 20 -34 35 -33 50 3 45 13 -2 21 -12 23
-28z m-2787 -48 c-5 -9 -19 -26 -32 -37 -26 -23 -17 -2 14 33 25 27 31 28 18
4z m-176 -61 c-9 -22 -24 -42 -32 -45 -8 -3 -12 -10 -9 -14 3 -5 -1 -18 -9
-28 -29 -38 -16 12 19 74 19 33 33 63 32 65 -2 2 2 1 7 -4 7 -5 4 -22 -8 -48z
m3063 -12 c7 -12 11 -24 8 -27 -6 -6 -35 27 -36 41 0 14 15 7 28 -14z m-2949
-21 c-7 -13 -14 -18 -16 -11 -3 7 2 19 9 27 18 20 22 12 7 -16z m3476 -16 c14
-40 24 -50 35 -32 5 8 12 11 17 7 4 -5 1 -12 -6 -17 -11 -6 -12 -14 -3 -37 20
-51 42 -141 41 -165 0 -12 -18 28 -38 89 -40 120 -48 135 -60 115 -6 -9 -15
-3 -34 22 -33 42 -33 44 -4 49 35 7 41 3 52 -31z m-3536 -4 c-9 -16 -11 -16
-29 -1 -26 22 -25 23 9 20 24 -2 27 -5 20 -19z m3565 6 c3 -8 2 -12 -4 -9 -6
3 -10 10 -10 16 0 14 7 11 14 -7z m-3660 -109 c-4 -8 -11 -15 -16 -15 -6 0 -5
6 2 15 7 8 14 15 16 15 2 0 1 -7 -2 -15z m96 5 c0 -5 -4 -10 -10 -10 -5 0 -10
5 -10 10 0 6 5 10 10 10 6 0 10 -4 10 -10z m-50 -21 c0 -5 -4 -9 -10 -9 -5 0
-10 7 -10 16 0 8 5 12 10 9 6 -3 10 -10 10 -16z m1290 11 c0 -13 -80 -53 -88
-44 -4 4 -2 8 3 10 6 2 24 13 40 23 35 22 45 25 45 11z m815 0 c-3 -5 -10 -10
-16 -10 -5 0 -9 5 -9 10 0 6 7 10 16 10 8 0 12 -4 9 -10z m135 0 c0 -5 -2 -10
-4 -10 -3 0 -8 5 -11 10 -3 6 -1 10 4 10 6 0 11 -4 11 -10z m-1338 -26 c-12
-8 -28 -13 -35 -11 -7 3 -1 9 13 15 37 16 47 14 22 -4z m-949 -36 c-6 -31 -23
-38 -23 -10 0 16 20 46 26 39 1 -1 0 -14 -3 -29z m892 12 c7 -12 -14 -44 -23
-35 -3 3 -11 -4 -19 -15 -8 -11 -18 -20 -23 -20 -14 0 3 44 24 62 25 20 32 22
41 8z m262 4 c-3 -3 -12 -4 -19 -1 -8 3 -5 6 6 6 11 1 17 -2 13 -5z m2523 -75
c0 -6 -4 -7 -10 -4 -5 3 -10 11 -10 16 0 6 5 7 10 4 6 -3 10 -11 10 -16z
m-3744 -16 c-10 -10 -19 5 -10 18 6 11 8 11 12 0 2 -7 1 -15 -2 -18z m863 1
c-15 -18 -22 -13 -13 10 3 9 10 13 16 10 5 -3 4 -12 -3 -20z m2930 -66 c-1
-35 -2 -38 -8 -18 -7 23 -4 60 5 60 2 0 4 -19 3 -42z m-3844 12 c3 -5 1 -10
-4 -10 -6 0 -11 5 -11 10 0 6 2 10 4 10 3 0 8 -4 11 -10z m1869 -6 c24 -9 19
-21 -9 -21 -25 0 -31 7 -18 20 8 8 8 8 27 1z m92 -1 c-11 -11 -66 -12 -66 -2
0 5 17 9 37 9 20 0 33 -3 29 -7z m-140 -28 c5 -22 12 -25 49 -25 24 0 47 -5
50 -10 8 -12 85 -6 114 9 28 15 57 14 94 -6 18 -9 44 -16 59 -15 15 1 30 -2
33 -8 4 -6 31 -8 68 -5 58 5 63 4 72 -17 9 -19 17 -23 52 -20 33 2 45 -2 56
-19 9 -12 28 -22 50 -24 20 -1 56 -13 81 -26 37 -18 45 -26 40 -42 -6 -18 -3
-19 25 -14 30 6 32 5 26 -16 -6 -17 -5 -19 5 -10 9 9 30 -6 91 -65 44 -42 79
-83 79 -90 0 -8 8 -21 17 -28 10 -7 14 -16 10 -20 -4 -4 -22 10 -39 32 -18 21
-55 60 -83 86 -45 43 -51 46 -62 31 -7 -9 -14 -14 -14 -10 -1 4 -3 12 -4 17
-1 6 -3 15 -4 20 0 6 -6 10 -12 10 -6 0 -23 8 -37 18 -16 10 -49 19 -80 21
-68 3 -102 16 -102 38 0 15 -1 15 -13 -2 -10 -12 -16 -14 -21 -7 -4 7 -14 12
-23 12 -9 0 -21 7 -27 15 -8 12 -42 17 -146 22 -245 12 -313 10 -342 -9 -17
-11 -37 -16 -55 -12 -16 3 -58 -5 -100 -19 -40 -13 -73 -20 -73 -16 0 14 -27
10 -40 -6 -7 -8 -18 -14 -24 -13 -11 2 -17 -1 -86 -42 -56 -33 -92 -48 -133
-54 -21 -3 -63 -22 -93 -41 -30 -19 -59 -35 -64 -35 -5 0 -23 -13 -38 -30 -16
-16 -34 -30 -40 -30 -13 0 -111 -117 -123 -147 -4 -12 -20 -29 -34 -39 -14 -9
-25 -26 -25 -39 0 -12 -8 -33 -18 -46 -33 -44 -92 -176 -92 -204 0 -27 -1 -27
-19 -11 -21 19 -42 3 -22 -17 17 -17 13 -59 -9 -87 -15 -20 -20 -21 -20 -8 0
9 5 20 10 23 12 8 13 55 1 55 -5 0 -14 -21 -20 -47 -10 -46 -31 -160 -31 -172
0 -3 -6 5 -14 19 -8 16 -9 29 -3 38 6 8 5 17 -3 27 -10 12 -9 15 5 15 14 0 16
6 12 33 -2 17 2 57 10 87 8 30 13 66 11 80 -3 24 -4 23 -19 -10 -40 -88 -40
-89 -35 -47 3 21 12 52 20 69 9 17 16 39 16 48 0 23 29 80 41 80 5 0 9 8 9 17
0 13 -3 14 -12 5 -15 -15 -28 -16 -28 -2 0 6 11 15 24 20 15 5 27 20 31 39 4
17 10 31 15 31 4 0 10 8 14 18 14 43 63 118 83 127 12 5 31 26 42 46 12 20 28
39 36 43 8 3 15 11 15 19 0 7 29 38 65 68 36 30 83 68 103 85 56 47 120 84
134 79 7 -3 26 11 42 30 16 19 35 35 41 35 6 0 29 9 51 19 23 11 63 25 90 31
27 6 57 16 66 21 10 5 28 9 41 9 13 0 27 4 33 9 8 9 87 27 126 30 11 1 20 -9
24 -24z m304 15 c0 -5 -4 -10 -10 -10 -5 0 -10 5 -10 10 0 6 5 10 10 10 6 0
10 -4 10 -10z m1726 -67 c-10 -10 -19 5 -10 18 6 11 8 11 12 0 2 -7 1 -15 -2
-18z m-3840 -100 c-7 -7 -26 7 -26 19 0 6 6 6 15 -2 9 -7 13 -15 11 -17z m612
-5 c17 -17 15 -28 -4 -28 -8 0 -13 -4 -10 -9 5 -8 -53 -125 -59 -119 -8 7 17
98 26 98 6 0 8 4 5 9 -6 9 15 61 25 61 3 0 10 -5 17 -12z m-528 -82 c-14 -14
-24 0 -16 21 6 15 8 15 16 3 6 -9 5 -19 0 -24z m-150 15 c0 -6 -4 -13 -10 -16
-5 -3 -10 1 -10 9 0 9 5 16 10 16 6 0 10 -4 10 -9z m82 -98 c7 -8 3 -19 -11
-34 -21 -23 -23 -28 -25 -63 -1 -11 -7 -21 -15 -24 -9 -3 -11 2 -8 14 3 11 11
48 17 84 14 84 23 104 28 65 2 -16 8 -35 14 -42z m-72 17 c0 -16 -5 -30 -11
-30 -6 0 -9 7 -6 15 4 8 2 17 -4 20 -11 7 -3 25 12 25 5 0 9 -13 9 -30z m116
-47 c-10 -10 -19 5 -10 18 6 11 8 11 12 0 2 -7 1 -15 -2 -18z m474 23 c0 -3
-4 -8 -10 -11 -5 -3 -10 -1 -10 4 0 6 5 11 10 11 6 0 10 -2 10 -4z m-620 -48
c0 -10 -4 -18 -10 -18 -5 0 -10 7 -10 15 0 9 -7 18 -15 21 -8 4 -12 10 -9 15
8 13 44 -14 44 -33z m600 -8 c-6 -12 -14 -19 -17 -17 -2 3 1 15 7 27 6 12 14
19 17 17 2 -3 -1 -15 -7 -27z m-450 -9 c0 -17 -4 -33 -10 -36 -6 -4 -10 8 -10
29 0 20 5 36 10 36 6 0 10 -13 10 -29z m-58 -3 c-7 -7 -12 -8 -12 -2 0 14 12
26 19 19 2 -3 -1 -11 -7 -17z m-127 -54 c-3 -43 -10 -51 -24 -26 -6 11 -7 23
-3 27 7 7 8 12 11 43 3 34 18 -8 16 -44z m625 22 c0 -3 -4 -8 -10 -11 -5 -3
-10 -1 -10 4 0 6 5 11 10 11 6 0 10 -2 10 -4z m1614 -5 c4 -5 -3 -7 -14 -4
-23 6 -26 13 -6 13 8 0 17 -4 20 -9z m806 -17 c15 -37 12 -42 -10 -15 -22 26
-26 41 -10 41 6 0 15 -12 20 -26z m-3000 -24 c8 -5 11 -12 8 -16 -10 -9 -38 3
-38 16 0 12 10 13 30 0z m-35 -69 c5 -17 4 -22 -6 -19 -7 2 -14 17 -16 34 -5
33 10 23 22 -15z m235 19 c0 -5 -4 -10 -10 -10 -5 0 -10 5 -10 10 0 6 5 10 10
10 6 0 10 -4 10 -10z m-227 -107 c-3 -7 2 -13 11 -13 10 0 16 -9 17 -22 0 -13
3 -49 5 -80 4 -52 2 -58 -15 -58 -46 0 -68 23 -31 33 11 3 20 12 20 21 0 10
-6 13 -15 10 -17 -7 -21 11 -5 21 11 7 9 33 -5 55 -14 23 -15 43 -3 58 13 16
29 -3 21 -25z m-33 -68 c0 -8 -4 -15 -10 -15 -5 0 -10 7 -10 15 0 8 5 15 10
15 6 0 10 -7 10 -15z m120 -35 c0 -5 -4 -10 -8 -10 -4 0 -6 -16 -4 -36 3 -23
1 -34 -6 -31 -15 10 -22 60 -10 75 13 15 28 16 28 2z m80 -67 c0 -7 -4 -13
-10 -13 -5 0 -10 12 -10 28 0 21 2 24 10 12 5 -8 10 -21 10 -27z m-64 -50
c-10 -10 -19 5 -10 18 6 11 8 11 12 0 2 -7 1 -15 -2 -18z m64 1 c0 -8 -4 -12
-10 -9 -5 3 -10 13 -10 21 0 8 5 12 10 9 6 -3 10 -13 10 -21z m-50 -174 c-5
-29 -4 -50 2 -58 6 -7 9 -15 6 -17 -19 -19 -35 72 -28 155 2 25 2 25 15 -5 9
-21 11 -44 5 -75z m667 8 c-3 -8 -6 -5 -6 6 -1 11 2 17 5 13 3 -3 4 -12 1 -19z
m163 -7 c0 -11 -4 -23 -10 -26 -6 -4 -10 5 -10 19 0 14 5 26 10 26 6 0 10 -9
10 -19z m-24 -88 c-10 -10 -19 5 -10 18 6 11 8 11 12 0 2 -7 1 -15 -2 -18z
m-761 7 c3 -5 2 -10 -4 -10 -5 0 -13 5 -16 10 -3 6 -2 10 4 10 5 0 13 -4 16
-10z m711 -17 c-10 -10 -19 5 -10 18 6 11 8 11 12 0 2 -7 1 -15 -2 -18z m-771
-34 c10 -30 2 -32 -12 -3 -6 13 -7 24 -3 24 5 0 12 -9 15 -21z m756 -30 l-9
-34 -1 31 c-1 17 2 34 6 37 12 13 14 -1 4 -34z m-601 -50 c0 -5 -4 -9 -10 -9
-5 0 -10 7 -10 16 0 8 5 12 10 9 6 -3 10 -10 10 -16z m-115 -31 c9 -24 21 -52
26 -63 4 -11 12 -36 17 -55 5 -21 17 -39 30 -45 13 -5 25 -21 28 -35 3 -14 14
-49 24 -77 15 -42 16 -53 6 -53 -8 0 -17 12 -21 28 -3 15 -18 42 -32 60 -13
18 -22 40 -19 48 4 11 0 14 -17 12 -19 -3 -22 2 -25 37 -2 27 -10 46 -25 57
-19 15 -20 18 -4 18 16 0 16 3 -3 40 -11 21 -20 46 -20 55 0 28 17 15 35 -27z
m57 -36 c3 -15 9 -36 13 -47 8 -18 7 -19 -8 -6 -10 8 -15 16 -12 19 3 3 1 10
-4 16 -4 6 -11 24 -15 40 -6 25 -5 28 7 17 8 -6 17 -24 19 -39z m618 18 c0 -5
-4 -10 -10 -10 -5 0 -10 5 -10 10 0 6 5 10 10 10 6 0 10 -4 10 -10z m30 -40
c0 -11 -4 -20 -10 -20 -5 0 -10 9 -10 20 0 11 5 20 10 20 6 0 10 -9 10 -20z
m2335 -17 c-6 -24 -35 -56 -43 -48 -2 2 4 19 13 39 20 42 40 48 30 9z m-2325
-34 c0 -5 -7 -12 -15 -15 -8 -4 -15 -13 -15 -21 0 -8 -4 -11 -10 -8 -5 3 -10
16 -10 28 0 16 6 22 25 23 14 1 25 -2 25 -7z m-10 -64 c-10 -12 -10 -19 -2
-27 16 -16 15 -63 -2 -77 -11 -9 -15 -5 -20 20 -10 50 -7 71 11 91 19 22 32
15 13 -7z m-555 -25 c3 -5 1 -10 -4 -10 -6 0 -11 5 -11 10 0 6 2 10 4 10 3 0
8 -4 11 -10z m-71 -72 c21 -52 38 -76 56 -80 26 -6 53 -47 41 -62 -12 -15 -5
-27 13 -20 7 3 22 -20 36 -52 14 -31 30 -66 37 -78 7 -12 17 -32 23 -44 5 -13
19 -26 30 -29 15 -4 18 -11 14 -29 -5 -19 -1 -26 18 -33 30 -11 60 -55 52 -75
-4 -9 -1 -16 6 -16 12 0 49 -39 50 -53 0 -5 -12 1 -26 12 -48 38 -47 10 1 -36
26 -24 45 -47 42 -50 -3 -3 -31 19 -62 48 -40 38 -52 55 -43 61 10 6 6 13 -14
28 -18 14 -24 26 -21 41 4 13 -2 27 -17 41 -13 12 -20 28 -17 39 3 12 0 19 -9
19 -8 0 -14 -7 -14 -15 0 -22 -12 -18 -33 10 -18 26 -11 35 11 13 17 -17 15
-2 -4 27 -9 14 -21 25 -28 25 -19 1 -50 51 -37 59 8 5 5 13 -10 27 -29 26 -50
70 -43 88 4 10 1 16 -9 16 -22 0 -34 20 -49 75 -7 28 -18 54 -25 58 -17 10
-17 27 0 27 7 0 21 -19 31 -42z m106 -19 c0 -11 -4 -17 -10 -14 -5 3 -10 15
-10 26 0 11 5 17 10 14 6 -3 10 -15 10 -26z m26 -46 c3 -10 10 -26 15 -36 6
-11 8 -21 5 -24 -10 -10 -37 19 -34 36 1 9 -1 22 -5 29 -5 7 -4 12 3 12 6 0
13 -8 16 -17z m139 -83 c3 -5 1 -10 -4 -10 -6 0 -11 5 -11 10 0 6 2 10 4 10 3
0 8 -4 11 -10z m-95 -16 c0 -8 -4 -12 -10 -9 -5 3 -10 10 -10 16 0 5 5 9 10 9
6 0 10 -7 10 -16z m20 -34 c0 -5 -2 -10 -4 -10 -3 0 -8 5 -11 10 -3 6 -1 10 4
10 6 0 11 -4 11 -10z m51 -93 c-8 -8 -11 -7 -11 4 0 20 13 34 18 19 3 -7 -1
-17 -7 -23z m53 -23 c13 -35 6 -47 -13 -23 -18 23 -19 39 -1 39 4 0 11 -7 14
-16z m46 -64 c0 -5 -4 -10 -10 -10 -5 0 -10 5 -10 10 0 6 5 10 10 10 6 0 10
-4 10 -10z m-116 -72 c-8 -12 -34 11 -34 28 0 11 4 10 19 -3 11 -9 18 -20 15
-25z m176 -18 c0 -5 -4 -10 -10 -10 -5 0 -10 5 -10 10 0 6 5 10 10 10 6 0 10
-4 10 -10z m3774 -63 c-6 -23 -102 -127 -116 -127 -20 0 -4 26 41 67 27 25 52
56 55 69 4 14 11 22 17 19 5 -4 7 -16 3 -28z m-50 8 c-4 -8 -11 -15 -16 -15
-6 0 -5 6 2 15 7 8 14 15 16 15 2 0 1 -7 -2 -15z m-42 -47 c-6 -6 -15 -8 -19
-4 -4 4 -1 11 7 16 19 12 27 3 12 -12z m148 5 c-1 -5 -19 -21 -42 -38 -23 -16
-50 -36 -60 -44 -42 -31 -6 15 40 51 47 37 62 45 62 31z m-3735 -92 c-3 -6
-11 -11 -17 -11 -6 0 -6 6 2 15 14 17 26 13 15 -4z m3555 -65 c0 -2 -7 -6 -15
-10 -8 -3 -15 -1 -15 4 0 6 7 10 15 10 8 0 15 -2 15 -4z m-3523 -32 c7 -22
-26 -24 -38 -3 -9 18 -8 20 12 17 12 -2 24 -8 26 -14z m3469 -9 c-11 -8 -22
-12 -25 -9 -6 6 19 24 34 24 6 -1 1 -7 -9 -15z m-2371 -35 c3 -5 -1 -10 -9
-10 -8 0 -18 5 -21 10 -3 6 1 10 9 10 8 0 18 -4 21 -10z m-310 -51 c11 -17 -1
-21 -15 -4 -8 9 -8 15 -2 15 6 0 14 -5 17 -11z m2555 -39 c0 -5 -4 -10 -10
-10 -5 0 -10 5 -10 10 0 6 5 10 10 10 6 0 10 -4 10 -10z m-3159 -25 c-1 -15
-24 -12 -29 3 -3 9 2 13 12 10 10 -1 17 -7 17 -13z m55 -39 c22 -17 11 -35
-13 -20 -19 12 -29 34 -16 34 5 0 18 -6 29 -14z m49 -37 c11 -17 -1 -21 -15
-4 -8 9 -8 15 -2 15 6 0 14 -5 17 -11z m53 -73 c37 -30 52 -47 52 -60 0 -12
-4 -12 -30 0 -16 9 -30 22 -30 30 0 8 -6 14 -12 14 -13 1 -58 34 -58 44 0 7
61 -15 78 -28z m-708 10 c0 -3 -4 -8 -10 -11 -5 -3 -10 -1 -10 4 0 6 5 11 10
11 6 0 10 -2 10 -4z m2480 -6 c0 -5 -5 -10 -11 -10 -5 0 -7 5 -4 10 3 6 8 10
11 10 2 0 4 -4 4 -10z m-2453 -26 c-3 -3 -12 -4 -19 -1 -8 3 -5 6 6 6 11 1 17
-2 13 -5z m3483 2 c0 -3 -4 -8 -10 -11 -5 -3 -10 -1 -10 4 0 6 5 11 10 11 6 0
10 -2 10 -4z m-3412 -46 c17 -11 32 -22 32 -25 0 -13 -30 -3 -56 20 -35 30
-22 33 24 5z m626 -16 c4 -10 1 -14 -6 -12 -15 5 -23 28 -10 28 5 0 13 -7 16
-16z m176 -4 c13 -8 13 -10 -2 -10 -9 0 -20 5 -23 10 -8 13 5 13 25 0z m-60
-9 c0 -13 -28 -22 -35 -11 -3 4 1 11 7 13 20 8 28 8 28 -2z m-118 -17 c21 -13
6 -26 -23 -20 -27 5 -30 4 -19 -9 7 -8 18 -15 25 -15 7 0 15 -7 19 -15 5 -13
1 -13 -27 -1 -37 16 -91 39 -95 42 -1 0 1 9 4 19 6 14 15 16 57 10 28 -3 54
-8 59 -11z m55 -10 c-7 -7 -37 7 -37 17 0 6 9 5 21 -1 11 -7 19 -14 16 -16z
m128 -4 c3 -5 1 -10 -4 -10 -6 0 -11 5 -11 10 0 6 2 10 4 10 3 0 8 -4 11 -10z
m-112 -37 c26 -14 29 -18 13 -21 -20 -4 -66 16 -66 30 0 13 18 10 53 -9z
m2447 13 c0 -2 -25 -16 -56 -32 -31 -16 -59 -34 -61 -41 -3 -8 -22 -13 -44
-13 -21 0 -39 -4 -39 -8 0 -9 -97 -42 -121 -42 -11 0 -11 2 1 10 13 8 12 10
-3 10 -28 0 -11 18 24 25 22 5 34 3 40 -6 8 -11 12 -11 23 4 8 10 16 18 18 17
5 -2 38 10 93 35 100 45 125 53 125 41z m-2420 -71 c32 -17 40 -35 15 -35 -8
0 -15 4 -15 8 0 5 -15 16 -32 25 -22 10 -27 16 -15 16 10 1 31 -6 47 -14z
m146 -23 c-7 -7 -56 18 -56 29 0 4 14 1 31 -8 16 -8 28 -18 25 -21z m99 18 c3
-5 1 -10 -4 -10 -6 0 -11 5 -11 10 0 6 2 10 4 10 3 0 8 -4 11 -10z m41 -35
c10 -8 14 -15 7 -15 -19 0 -43 11 -43 21 0 13 14 11 36 -6z m-186 -10 c19 -10
27 -20 24 -30 -7 -18 -24 -10 -24 11 0 8 -9 14 -19 14 -11 0 -23 5 -26 10 -9
15 12 12 45 -5z m-100 -15 c0 -5 -9 -10 -20 -10 -11 0 -20 5 -20 10 0 6 9 10
20 10 11 0 20 -4 20 -10z m205 -60 c3 -5 1 -10 -4 -10 -6 0 -11 5 -11 10 0 6
2 10 4 10 3 0 8 -4 11 -10z m-175 -70 c-20 -13 -33 -13 -25 0 3 6 14 10 23 10
15 0 15 -2 2 -10z m1188 -102 c-2 -6 -10 -14 -16 -16 -7 -2 -10 2 -6 12 7 18
28 22 22 4z m2 -57 c0 -22 -15 -35 -29 -27 -13 9 -1 46 15 46 8 0 14 -9 14
-19z"/>
<path d="M3978 5413 c7 -3 16 -2 19 1 4 3 -2 6 -13 5 -11 0 -14 -3 -6 -6z"/>
<path d="M2610 4700 c0 -5 5 -10 10 -10 6 0 10 5 10 10 0 6 -4 10 -10 10 -5 0
-10 -4 -10 -10z"/>
<path d="M2665 4689 c-11 -17 1 -21 15 -4 8 9 8 15 2 15 -6 0 -14 -5 -17 -11z"/>
<path d="M4030 4074 c0 -11 -6 -14 -20 -9 -11 3 -20 2 -20 -4 0 -18 19 -22 40
-9 21 13 28 38 10 38 -5 0 -10 -7 -10 -16z"/>
<path d="M3895 4039 c-4 -6 -5 -13 -2 -15 7 -8 57 7 57 17 0 13 -47 11 -55 -2z"/>
<path d="M3840 4020 c-12 -8 -10 -10 8 -10 13 0 20 4 17 10 -7 12 -6 12 -25 0z"/>
<path d="M4070 4010 c0 -5 5 -10 10 -10 6 0 10 5 10 10 0 6 -4 10 -10 10 -5 0
-10 -4 -10 -10z"/>
<path d="M4225 4010 c3 -5 13 -10 21 -10 8 0 14 5 14 10 0 6 -9 10 -21 10 -11
0 -17 -4 -14 -10z"/>
<path d="M3752 3998 c-8 -10 -4 -13 14 -14 20 -2 23 1 13 12 -14 17 -14 17
-27 2z"/>
<path d="M3995 3980 c-3 -5 1 -10 9 -10 9 0 16 5 16 10 0 6 -4 10 -9 10 -6 0
-13 -4 -16 -10z"/>
<path d="M4440 3982 c0 -5 7 -13 16 -16 10 -4 14 -1 12 6 -5 15 -28 23 -28 10z"/>
<path d="M3670 3940 c0 -5 7 -10 15 -10 8 0 15 5 15 10 0 6 -7 10 -15 10 -8 0
-15 -4 -15 -10z"/>
<path d="M3630 3920 c0 -5 5 -10 10 -10 6 0 10 5 10 10 0 6 -4 10 -10 10 -5 0
-10 -4 -10 -10z"/>
<path d="M3670 3844 c0 -8 5 -12 10 -9 6 3 10 10 10 16 0 5 -4 9 -10 9 -5 0
-10 -7 -10 -16z"/>
<path d="M3175 3404 c-16 -17 -17 -34 0 -37 4 -1 12 10 16 26 8 31 6 33 -16
11z"/>
<path d="M3140 3344 c0 -8 5 -12 10 -9 6 3 10 10 10 16 0 5 -4 9 -10 9 -5 0
-10 -7 -10 -16z"/>
<path d="M3100 3335 c-8 -9 -8 -15 -2 -15 12 0 26 19 19 26 -2 2 -10 -2 -17
-11z"/>
<path d="M3030 3290 c0 -5 5 -10 10 -10 6 0 10 -9 10 -20 0 -11 5 -20 10 -20
14 0 12 22 -4 43 -15 19 -26 22 -26 7z"/>
<path d="M3075 3290 c-3 -5 -2 -10 4 -10 5 0 13 5 16 10 3 6 2 10 -4 10 -5 0
-13 -4 -16 -10z"/>
<path d="M3075 3209 c-4 -6 -5 -13 -2 -16 7 -7 27 6 27 18 0 12 -17 12 -25 -2z"/>
<path d="M2450 2420 c0 -5 5 -10 11 -10 5 0 7 5 4 10 -3 6 -8 10 -11 10 -2 0
-4 -4 -4 -10z"/>
<path d="M5230 5475 c0 -2 9 -9 20 -15 16 -9 20 -8 20 5 0 8 -9 15 -20 15 -11
0 -20 -2 -20 -5z"/>
<path d="M4510 5460 c0 -5 16 -10 36 -10 21 0 33 4 29 10 -3 6 -19 10 -36 10
-16 0 -29 -4 -29 -10z"/>
<path d="M4825 5440 c7 -11 85 -34 91 -27 5 5 -70 37 -87 37 -6 0 -7 -4 -4
-10z"/>
<path d="M5020 5435 c14 -7 43 -17 65 -20 22 -4 60 -18 84 -31 24 -13 46 -23
47 -21 6 6 -80 59 -101 62 -11 2 -36 8 -55 14 -49 15 -70 13 -40 -4z"/>
<path d="M3575 5429 c-4 -5 -18 -14 -31 -19 -13 -5 -24 -14 -24 -20 0 -13 10
-12 39 4 13 7 32 11 43 8 21 -5 24 8 6 26 -15 15 -25 15 -33 1z"/>
<path d="M4553 5433 c-7 -2 -13 -9 -13 -14 0 -14 26 -10 40 6 10 12 10 15 -1
14 -8 0 -20 -3 -26 -6z"/>
<path d="M5330 5425 c7 -8 17 -15 22 -15 6 0 5 7 -2 15 -7 8 -17 15 -22 15 -6
0 -5 -7 2 -15z"/>
<path d="M3680 5420 c-8 -5 -11 -12 -8 -15 4 -4 17 0 30 9 24 17 5 23 -22 6z"/>
<path d="M5282 5408 c2 -6 45 -34 95 -62 49 -28 107 -66 127 -83 41 -37 70
-45 40 -12 -17 19 -145 109 -169 118 -5 2 -21 11 -35 21 -36 24 -63 33 -58 18z"/>
<path d="M5436 5366 c3 -9 34 -29 67 -46 100 -49 130 -68 165 -105 18 -19 40
-35 47 -35 8 0 18 -6 22 -12 11 -18 53 -40 53 -28 0 5 -13 16 -29 25 -16 8
-40 28 -53 45 -13 17 -49 46 -79 65 -153 95 -204 120 -193 91z"/>
<path d="M5270 5366 c0 -2 16 -16 35 -30 23 -18 35 -22 35 -14 0 8 -13 21 -29
31 -29 17 -41 21 -41 13z"/>
<path d="M5270 5320 c29 -26 60 -39 60 -26 0 6 -76 56 -86 56 -5 -1 7 -14 26
-30z"/>
<path d="M3705 5320 c-3 -5 1 -10 9 -10 9 0 16 5 16 10 0 6 -4 10 -9 10 -6 0
-13 -4 -16 -10z"/>
<path d="M5423 5278 c24 -33 47 -42 54 -23 3 10 -55 55 -71 55 -5 0 3 -15 17
-32z"/>
<path d="M3123 5205 c-22 -19 -24 -24 -10 -25 9 0 17 3 17 8 0 4 12 15 28 24
19 12 22 18 10 18 -9 0 -30 -11 -45 -25z"/>
<path d="M5455 5220 c3 -5 8 -10 11 -10 2 0 4 5 4 10 0 6 -5 10 -11 10 -5 0
-7 -4 -4 -10z"/>
<path d="M5608 5130 c50 -49 92 -94 92 -99 0 -6 11 -13 25 -17 13 -3 29 -12
36 -20 15 -19 30 -18 23 1 -4 10 0 15 15 15 16 0 21 -6 21 -27 0 -16 12 -39
28 -56 18 -21 21 -28 10 -24 -14 5 -17 1 -14 -23 2 -16 9 -37 17 -46 12 -15
14 -14 19 2 5 14 10 12 30 -17 13 -19 28 -35 32 -37 4 -2 8 -9 8 -15 1 -12 50
-53 50 -42 0 4 -18 28 -40 54 -22 26 -40 55 -40 64 0 9 -5 17 -11 17 -5 0 -8
4 -5 9 3 5 -4 21 -15 35 -30 38 -15 45 21 11 21 -20 30 -24 30 -14 0 9 -43 56
-97 105 -53 49 -110 104 -126 122 -17 17 -34 32 -39 32 -20 0 -4 -27 47 -76
49 -48 67 -74 49 -74 -4 0 -32 24 -63 54 -31 30 -72 67 -91 82 -19 16 -43 39
-53 52 -10 12 -26 22 -35 22 -10 0 20 -36 76 -90z"/>
<path d="M5580 5213 c0 -13 29 -38 35 -31 3 3 -4 13 -15 23 -11 10 -20 13 -20
8z"/>
<path d="M3410 5190 c0 -5 6 -10 14 -10 8 0 18 5 21 10 3 6 -3 10 -14 10 -12
0 -21 -4 -21 -10z"/>
<path d="M5716 4979 c27 -30 74 -62 81 -55 9 9 -66 76 -84 76 -14 0 -13 -3 3
-21z"/>
<path d="M5670 4896 c0 -2 8 -10 18 -17 15 -13 16 -12 3 4 -13 16 -21 21 -21
13z"/>
<path d="M2630 4840 c0 -5 5 -10 10 -10 6 0 10 5 10 10 0 6 -4 10 -10 10 -5 0
-10 -4 -10 -10z"/>
<path d="M6030 4832 c0 -5 12 -19 27 -33 l26 -24 -19 33 c-17 30 -34 42 -34
24z"/>
<path d="M5990 4826 c0 -2 8 -10 18 -17 15 -13 16 -12 3 4 -13 16 -21 21 -21
13z"/>
<path d="M2592 4808 c-19 -19 -14 -30 8 -18 11 6 20 15 20 20 0 14 -14 12 -28
-2z"/>
<path d="M5846 4805 c6 -15 35 -35 50 -35 4 0 -3 11 -16 25 -26 28 -42 33 -34
10z"/>
<path d="M6039 4764 c11 -39 64 -120 69 -105 4 11 -31 76 -62 116 -15 19 -15
18 -7 -11z"/>
<path d="M5880 4731 c0 -6 4 -13 10 -16 6 -3 7 1 4 9 -7 18 -14 21 -14 7z"/>
<path d="M5935 4730 c3 -5 8 -10 11 -10 2 0 4 5 4 10 0 6 -5 10 -11 10 -5 0
-7 -4 -4 -10z"/>
<path d="M4020 4710 c0 -5 5 -10 10 -10 6 0 10 5 10 10 0 6 -4 10 -10 10 -5 0
-10 -4 -10 -10z"/>
<path d="M3920 4700 c-12 -8 -9 -10 13 -10 15 0 27 5 27 10 0 13 -20 13 -40 0z"/>
<path d="M3990 4699 c0 -5 5 -7 10 -4 6 3 10 8 10 11 0 2 -4 4 -10 4 -5 0 -10
-5 -10 -11z"/>
<path d="M5950 4692 c0 -12 34 -42 48 -42 18 0 14 10 -10 31 -25 20 -38 24
-38 11z"/>
<path d="M5080 4686 c0 -2 8 -10 18 -17 15 -13 16 -12 3 4 -13 16 -21 21 -21
13z"/>
<path d="M3817 4673 c-15 -14 -6 -19 28 -15 19 2 35 8 35 13 0 10 -53 12 -63
2z"/>
<path d="M3780 4660 c0 -5 5 -10 10 -10 6 0 10 5 10 10 0 6 -4 10 -10 10 -5 0
-10 -4 -10 -10z"/>
<path d="M5907 4635 c18 -25 33 -32 33 -17 0 10 -33 42 -44 42 -4 0 1 -11 11
-25z"/>
<path d="M3735 4640 c3 -5 8 -10 11 -10 2 0 4 5 4 10 0 6 -5 10 -11 10 -5 0
-7 -4 -4 -10z"/>
<path d="M3673 4629 c-22 -8 -32 -29 -15 -29 12 0 48 28 42 33 -3 3 -15 1 -27
-4z"/>
<path d="M5960 4613 c0 -5 7 -18 15 -29 12 -16 14 -16 15 -3 0 9 -7 22 -15 29
-8 7 -15 8 -15 3z"/>
<path d="M5248 4583 c7 -3 16 -2 19 1 4 3 -2 6 -13 5 -11 0 -14 -3 -6 -6z"/>
<path d="M3750 4570 c0 -5 5 -10 10 -10 6 0 10 5 10 10 0 6 -4 10 -10 10 -5 0
-10 -4 -10 -10z"/>
<path d="M4044 4557 c2 -16 9 -21 22 -17 28 7 102 5 159 -4 41 -7 48 -6 38 4
-7 8 -27 15 -45 16 -114 11 -145 15 -160 18 -13 3 -17 -1 -14 -17z"/>
<path d="M3470 4555 c-14 -16 -10 -18 14 -9 9 3 16 10 16 15 0 14 -16 11 -30
-6z"/>
<path d="M3684 4551 c3 -5 15 -7 26 -4 28 7 25 13 -6 13 -14 0 -23 -4 -20 -9z"/>
<path d="M3622 4531 c2 -7 7 -12 11 -12 12 1 9 15 -3 20 -7 2 -11 -2 -8 -8z"/>
<path d="M4340 4531 c0 -5 13 -12 30 -16 16 -4 32 -11 35 -16 4 -5 14 -9 23
-9 13 0 12 5 -8 20 -14 11 -31 18 -37 15 -7 -2 -13 0 -13 5 0 6 -7 10 -15 10
-8 0 -15 -4 -15 -9z"/>
<path d="M4470 4491 c0 -10 30 -24 37 -17 3 2 -5 9 -16 16 -12 6 -21 7 -21 1z"/>
<path d="M3310 4475 c-7 -8 -8 -15 -2 -15 5 0 15 7 22 15 7 8 8 15 2 15 -5 0
-15 -7 -22 -15z"/>
<path d="M4130 4465 c7 -8 19 -15 27 -15 13 0 13 3 3 15 -7 8 -19 15 -27 15
-13 0 -13 -3 -3 -15z"/>
<path d="M3910 4460 c0 -5 4 -10 9 -10 6 0 13 5 16 10 3 6 -1 10 -9 10 -9 0
-16 -4 -16 -10z"/>
<path d="M3822 4454 c10 -10 69 -13 63 -4 -4 6 -20 10 -37 10 -17 0 -29 -3
-26 -6z"/>
<path d="M4520 4451 c0 -10 39 -31 44 -23 2 4 -7 12 -20 19 -13 6 -24 8 -24 4z"/>
<path d="M4055 4430 c-3 -5 -1 -10 4 -10 6 0 11 5 11 10 0 6 -2 10 -4 10 -3 0
-8 -4 -11 -10z"/>
<path d="M3270 4415 c-14 -16 -10 -18 14 -9 9 3 16 10 16 15 0 14 -16 11 -30
-6z"/>
<path d="M4760 4242 c0 -5 7 -15 15 -22 8 -7 15 -8 15 -2 0 5 -7 15 -15 22 -8
7 -15 8 -15 2z"/>
<path d="M6130 4203 c0 -12 7 -23 15 -27 13 -5 14 -2 4 17 -17 32 -19 33 -19
10z"/>
<path d="M2150 4191 c0 -6 5 -13 10 -16 6 -3 10 1 10 9 0 9 -4 16 -10 16 -5 0
-10 -4 -10 -9z"/>
<path d="M3020 4191 c0 -5 7 -14 15 -21 16 -14 18 -10 9 14 -6 17 -24 22 -24
7z"/>
<path d="M2996 4151 c-4 -7 -5 -15 -2 -18 9 -9 19 4 14 18 -4 11 -6 11 -12 0z"/>
<path d="M2140 4135 c0 -8 5 -15 10 -15 6 0 10 7 10 15 0 8 -4 15 -10 15 -5 0
-10 -7 -10 -15z"/>
<path d="M3020 4130 c0 -5 5 -10 10 -10 6 0 10 5 10 10 0 6 -4 10 -10 10 -5 0
-10 -4 -10 -10z"/>
<path d="M5030 4134 c0 -17 28 -49 36 -41 4 4 -2 17 -14 30 -12 12 -22 17 -22
11z"/>
<path d="M2986 4104 c-4 -10 -1 -14 6 -12 15 5 23 28 10 28 -5 0 -13 -7 -16
-16z"/>
<path d="M2121 4072 c-14 -26 -14 -62 -1 -62 6 0 10 6 8 13 -1 6 2 22 6 35 10
30 1 40 -13 14z"/>
<path d="M5080 4070 c0 -5 5 -10 10 -10 6 0 10 5 10 10 0 6 -4 10 -10 10 -5 0
-10 -4 -10 -10z"/>
<path d="M2100 3905 c-13 -34 -13 -75 0 -75 6 0 10 12 10 26 0 14 5 34 10 44
7 13 7 21 0 25 -6 3 -15 -6 -20 -20z"/>
<path d="M6180 3879 c0 -5 5 -7 10 -4 6 3 10 8 10 11 0 2 -4 4 -10 4 -5 0 -10
-5 -10 -11z"/>
<path d="M6166 3835 c4 -8 10 -15 15 -15 4 0 6 7 3 15 -4 8 -10 15 -15 15 -4
0 -6 -7 -3 -15z"/>
<path d="M2080 3789 c0 -11 5 -17 10 -14 6 3 10 13 10 21 0 8 -4 14 -10 14 -5
0 -10 -9 -10 -21z"/>
<path d="M6245 3750 c-3 -5 -1 -10 4 -10 6 0 11 5 11 10 0 6 -2 10 -4 10 -3 0
-8 -4 -11 -10z"/>
<path d="M6135 3740 c-3 -5 -1 -10 4 -10 6 0 11 5 11 10 0 6 -2 10 -4 10 -3 0
-8 -4 -11 -10z"/>
<path d="M6160 3700 c0 -11 2 -20 4 -20 2 0 6 9 9 20 3 11 1 20 -4 20 -5 0 -9
-9 -9 -20z"/>
<path d="M6170 3606 c0 -9 5 -16 10 -16 6 0 10 4 10 9 0 6 -4 13 -10 16 -5 3
-10 -1 -10 -9z"/>
<path d="M4270 3600 c0 -5 7 -10 15 -10 8 0 15 5 15 10 0 6 -7 10 -15 10 -8 0
-15 -4 -15 -10z"/>
<path d="M4323 3603 c-26 -10 -11 -19 34 -21 26 -1 43 2 37 7 -12 11 -56 20
-71 14z"/>
<path d="M6215 3569 c-8 -23 -1 -34 14 -24 13 8 15 45 2 45 -5 0 -13 -9 -16
-21z"/>
<path d="M4540 3530 c0 -5 5 -10 10 -10 6 0 10 5 10 10 0 6 -4 10 -10 10 -5 0
-10 -4 -10 -10z"/>
<path d="M4580 3500 c0 -5 5 -10 10 -10 6 0 10 5 10 10 0 6 -4 10 -10 10 -5 0
-10 -4 -10 -10z"/>
<path d="M6082 3428 c-14 -14 -16 -38 -3 -38 10 0 26 39 19 46 -2 2 -10 -2
-16 -8z"/>
<path d="M4928 3265 c2 -14 8 -25 13 -25 5 0 9 -7 9 -16 0 -8 4 -12 10 -9 6 4
6 12 1 23 -5 9 -12 25 -15 35 -8 26 -24 20 -18 -8z"/>
<path d="M5940 3235 c-7 -9 -10 -18 -7 -22 8 -7 37 15 37 28 0 14 -16 11 -30
-6z"/>
<path d="M3521 2816 c-8 -10 -9 -16 -1 -21 5 -3 13 1 16 10 9 22 -1 29 -15 11z"/>
<path d="M5111 2651 c-31 -43 -25 -50 9 -11 33 37 34 40 21 40 -5 0 -19 -13
-30 -29z"/>
<path d="M5188 2560 c-15 -17 -24 -30 -20 -30 10 0 24 12 46 38 28 33 5 26
-26 -8z"/>
<path d="M5125 2560 c3 -5 8 -10 11 -10 2 0 4 5 4 10 0 6 -5 10 -11 10 -5 0
-7 -4 -4 -10z"/>
<path d="M3700 2215 c7 -8 17 -15 22 -15 6 0 5 7 -2 15 -7 8 -17 15 -22 15 -6
0 -5 -7 2 -15z"/>
<path d="M6820 2151 c-25 -22 -41 -43 -37 -47 4 -4 26 11 49 34 53 55 45 62
-12 13z"/>
<path d="M2426 2142 c-3 -6 -1 -14 5 -17 15 -10 25 3 12 16 -7 7 -13 7 -17 1z"/>
<path d="M2490 2042 c0 -19 19 -52 30 -52 16 0 12 16 -10 41 -11 14 -19 18
-20 11z"/>
<path d="M2536 1961 c-7 -11 41 -86 78 -120 38 -35 45 -17 9 22 -17 17 -42 49
-56 70 -14 21 -28 33 -31 28z"/>
<path d="M3572 1911 c2 -7 7 -12 11 -12 12 1 9 15 -3 20 -7 2 -11 -2 -8 -8z"/>
<path d="M5478 1723 c-10 -2 -18 -11 -18 -19 0 -11 5 -11 25 -2 14 6 25 15 25
20 0 8 -4 9 -32 1z"/>
<path d="M4392 1709 c2 -7 10 -15 17 -17 8 -3 12 1 9 9 -2 7 -10 15 -17 17 -8
3 -12 -1 -9 -9z"/>
<path d="M5545 1702 c-45 -15 -47 -17 -21 -20 15 -2 42 2 60 10 17 7 34 13 38
13 3 0 10 3 14 8 13 13 -39 6 -91 -11z"/>
<path d="M2335 1690 c3 -5 8 -10 11 -10 2 0 4 5 4 10 0 6 -5 10 -11 10 -5 0
-7 -4 -4 -10z"/>
<path d="M4430 1696 c0 -2 7 -9 15 -16 13 -11 14 -10 9 4 -5 14 -24 23 -24 12z"/>
<path d="M4080 1676 c0 -9 7 -16 16 -16 17 0 14 22 -4 28 -7 2 -12 -3 -12 -12z"/>
<path d="M5460 1670 c-8 -5 -10 -10 -5 -10 6 0 17 5 25 10 8 5 11 10 5 10 -5
0 -17 -5 -25 -10z"/>
<path d="M4532 1659 c2 -7 10 -15 17 -17 8 -3 12 1 9 9 -2 7 -10 15 -17 17 -8
3 -12 -1 -9 -9z"/>
<path d="M4948 1665 c-3 -3 -47 -6 -99 -6 -97 -1 -142 -10 -121 -23 12 -7 100
-9 147 -1 17 2 53 5 80 5 70 2 135 11 135 19 0 7 -135 13 -142 6z"/>
<path d="M6346 1655 c-11 -8 -16 -15 -10 -15 5 0 18 7 28 15 11 8 16 15 10 15
-5 0 -18 -7 -28 -15z"/>
<path d="M4620 1640 c19 -13 30 -13 30 0 0 6 -10 10 -22 10 -19 0 -20 -2 -8
-10z"/>
<path d="M5305 1643 c-11 -3 -24 -8 -30 -12 -5 -4 -26 -6 -45 -5 -19 1 -44 -3
-54 -8 -10 -6 -48 -10 -83 -10 -45 0 -63 -3 -60 -11 6 -18 168 -18 188 0 15
13 19 12 31 -5 18 -26 68 -19 68 9 0 12 10 23 25 29 14 5 25 12 25 15 0 6 -36
5 -65 -2z"/>
<path d="M4390 1580 c0 -5 5 -10 10 -10 6 0 10 5 10 10 0 6 -4 10 -10 10 -5 0
-10 -4 -10 -10z"/>
<path d="M3044 1565 c11 -8 25 -15 30 -15 6 0 2 7 -8 15 -11 8 -25 15 -30 15
-6 0 -2 -7 8 -15z"/>
<path d="M4741 1571 c-10 -6 -2 -11 29 -16 26 -4 46 -3 52 3 8 8 5 11 -8 11
-10 -1 -28 2 -39 5 -11 4 -26 2 -34 -3z"/>
<path d="M4005 1560 c3 -5 11 -10 16 -10 6 0 7 5 4 10 -3 6 -11 10 -16 10 -6
0 -7 -4 -4 -10z"/>
<path d="M4420 1560 c0 -5 5 -10 10 -10 6 0 10 5 10 10 0 6 -4 10 -10 10 -5 0
-10 -4 -10 -10z"/>
<path d="M3100 1536 c0 -2 7 -9 15 -16 9 -7 15 -8 15 -2 0 5 -7 12 -15 16 -8
3 -15 4 -15 2z"/>
<path d="M4818 1523 c7 -3 16 -2 19 1 4 3 -2 6 -13 5 -11 0 -14 -3 -6 -6z"/>
<path d="M2620 1504 c0 -8 5 -12 10 -9 6 4 8 11 5 16 -9 14 -15 11 -15 -7z"/>
<path d="M4410 1506 c0 -2 7 -6 15 -10 8 -3 15 -1 15 4 0 6 -7 10 -15 10 -8 0
-15 -2 -15 -4z"/>
<path d="M4698 1493 c6 -2 18 -2 25 0 6 3 1 5 -13 5 -14 0 -19 -2 -12 -5z"/>
<path d="M5873 1287 c-41 -20 -55 -37 -32 -37 15 0 89 44 89 53 0 11 -11 8
-57 -16z"/>
<path d="M4720 872 c0 -5 7 -13 16 -16 10 -4 14 -1 12 6 -5 15 -28 23 -28 10z"/>
</g>
</svg>
